<svg xmlns="http://www.w3.org/2000/svg" width="645" height="142" viewBox="0 0 645 142" fill="none"><g clip-path="url(#clip0_1_2)"><path d="M22.99 52.97C24.97 50.0367 27.6833 47.6533 31.13 45.82C34.65 43.9867 38.6467 43.07 43.12 43.07C48.3267 43.07 53.02 44.3533 57.2 46.92C61.4533 49.4867 64.79 53.1533 67.21 57.92C69.7033 62.6133 70.95 68.0767 70.95 74.31C70.95 80.5433 69.7033 86.08 67.21 90.92C64.79 95.6867 61.4533 99.39 57.2 102.03C53.02 104.67 48.3267 105.99 43.12 105.99C38.5733 105.99 34.5767 105.11 31.13 103.35C27.7567 101.517 25.0433 99.17 22.99 96.31V105H7.59V23.6H22.99V52.97ZM55.22 74.31C55.22 70.6433 54.45 67.49 52.91 64.85C51.4433 62.1367 49.4633 60.0833 46.97 58.69C44.55 57.2967 41.91 56.6 39.05 56.6C36.2633 56.6 33.6233 57.3333 31.13 58.8C28.71 60.1933 26.73 62.2467 25.19 64.96C23.7233 67.6733 22.99 70.8633 22.99 74.53C22.99 78.1967 23.7233 81.3867 25.19 84.1C26.73 86.8133 28.71 88.9033 31.13 90.37C33.6233 91.7633 36.2633 92.46 39.05 92.46C41.91 92.46 44.55 91.7267 46.97 90.26C49.4633 88.7933 51.4433 86.7033 52.91 83.99C54.45 81.2767 55.22 78.05 55.22 74.31ZM133.291 73.21C133.291 75.41 133.144 77.39 132.851 79.15H88.3008C88.6674 83.55 90.2074 86.9967 92.9208 89.49C95.6341 91.9833 98.9708 93.23 102.931 93.23C108.651 93.23 112.721 90.7733 115.141 85.86H131.751C129.991 91.7267 126.617 96.5667 121.631 100.38C116.644 104.12 110.521 105.99 103.261 105.99C97.3941 105.99 92.1141 104.707 87.4208 102.14C82.8008 99.5 79.1708 95.7967 76.5308 91.03C73.9641 86.2633 72.6808 80.7633 72.6808 74.53C72.6808 68.2233 73.9641 62.6867 76.5308 57.92C79.0974 53.1533 82.6908 49.4867 87.3108 46.92C91.9308 44.3533 97.2474 43.07 103.261 43.07C109.054 43.07 114.224 44.3167 118.771 46.81C123.391 49.3033 126.947 52.86 129.441 57.48C132.007 62.0267 133.291 67.27 133.291 73.21ZM117.341 68.81C117.267 64.85 115.837 61.6967 113.051 59.35C110.264 56.93 106.854 55.72 102.821 55.72C99.0075 55.72 95.7808 56.8933 93.1408 59.24C90.5741 61.5133 88.9974 64.7033 88.4108 68.81H117.341ZM156.961 56.71V86.19C156.961 88.2433 157.438 89.7467 158.391 90.7C159.418 91.58 161.105 92.02 163.451 92.02H170.601V105H160.921C147.941 105 141.451 98.6933 141.451 86.08V56.71H134.191V44.06H141.451V28.99H156.961V44.06H170.601V56.71H156.961ZM194.108 56.71V86.19C194.108 88.2433 194.585 89.7467 195.538 90.7C196.565 91.58 198.251 92.02 200.598 92.02H207.748V105H198.068C185.088 105 178.598 98.6933 178.598 86.08V56.71H171.338V44.06H178.598V28.99H194.108V44.06H207.748V56.71H194.108ZM269.974 73.21C269.974 75.41 269.828 77.39 269.534 79.15H224.984C225.351 83.55 226.891 86.9967 229.604 89.49C232.318 91.9833 235.654 93.23 239.614 93.23C245.334 93.23 249.404 90.7733 251.824 85.86H268.434C266.674 91.7267 263.301 96.5667 258.314 100.38C253.328 104.12 247.204 105.99 239.944 105.99C234.078 105.99 228.798 104.707 224.104 102.14C219.484 99.5 215.854 95.7967 213.214 91.03C210.648 86.2633 209.364 80.7633 209.364 74.53C209.364 68.2233 210.648 62.6867 213.214 57.92C215.781 53.1533 219.374 49.4867 223.994 46.92C228.614 44.3533 233.931 43.07 239.944 43.07C245.738 43.07 250.908 44.3167 255.454 46.81C260.074 49.3033 263.631 52.86 266.124 57.48C268.691 62.0267 269.974 67.27 269.974 73.21ZM254.024 68.81C253.951 64.85 252.521 61.6967 249.734 59.35C246.948 56.93 243.538 55.72 239.504 55.72C235.691 55.72 232.464 56.8933 229.824 59.24C227.258 61.5133 225.681 64.7033 225.094 68.81H254.024ZM291.115 53.52C293.095 50.2933 295.662 47.7633 298.815 45.93C302.042 44.0967 305.708 43.18 309.815 43.18V59.35H305.745C300.905 59.35 297.238 60.4867 294.745 62.76C292.325 65.0333 291.115 68.9933 291.115 74.64V105H275.715V44.06H291.115V53.52ZM341.528 28.22C349.594 28.22 356.671 29.7967 362.758 32.95C368.918 36.1033 373.648 40.6133 376.948 46.48C380.321 52.2733 382.008 59.02 382.008 66.72C382.008 74.42 380.321 81.1667 376.948 86.96C373.648 92.68 368.918 97.1167 362.758 100.27C356.671 103.423 349.594 105 341.528 105H314.688V28.22H341.528ZM340.978 91.91C349.044 91.91 355.278 89.71 359.678 85.31C364.078 80.91 366.278 74.7133 366.278 66.72C366.278 58.7267 364.078 52.4933 359.678 48.02C355.278 43.4733 349.044 41.2 340.978 41.2H330.088V91.91H340.978ZM444.685 73.21C444.685 75.41 444.539 77.39 444.245 79.15H399.695C400.062 83.55 401.602 86.9967 404.315 89.49C407.029 91.9833 410.365 93.23 414.325 93.23C420.045 93.23 424.115 90.7733 426.535 85.86H443.145C441.385 91.7267 438.012 96.5667 433.025 100.38C428.039 104.12 421.915 105.99 414.655 105.99C408.789 105.99 403.509 104.707 398.815 102.14C394.195 99.5 390.565 95.7967 387.925 91.03C385.359 86.2633 384.075 80.7633 384.075 74.53C384.075 68.2233 385.359 62.6867 387.925 57.92C390.492 53.1533 394.085 49.4867 398.705 46.92C403.325 44.3533 408.642 43.07 414.655 43.07C420.449 43.07 425.619 44.3167 430.165 46.81C434.785 49.3033 438.342 52.86 440.835 57.48C443.402 62.0267 444.685 67.27 444.685 73.21ZM428.735 68.81C428.662 64.85 427.232 61.6967 424.445 59.35C421.659 56.93 418.249 55.72 414.215 55.72C410.402 55.72 407.175 56.8933 404.535 59.24C401.969 61.5133 400.392 64.7033 399.805 68.81H428.735ZM475.836 90.81L491.236 44.06H507.626L485.076 105H466.376L443.936 44.06H460.436L475.836 90.81ZM534.096 105.99C529.109 105.99 524.636 105.11 520.676 103.35C516.716 101.517 513.562 99.06 511.216 95.98C508.942 92.9 507.696 89.49 507.476 85.75H522.986C523.279 88.0967 524.416 90.04 526.396 91.58C528.449 93.12 530.979 93.89 533.986 93.89C536.919 93.89 539.192 93.3033 540.806 92.13C542.492 90.9567 543.336 89.4533 543.336 87.62C543.336 85.64 542.309 84.1733 540.256 83.22C538.276 82.1933 535.086 81.0933 530.686 79.92C526.139 78.82 522.399 77.6833 519.466 76.51C516.606 75.3367 514.112 73.54 511.986 71.12C509.932 68.7 508.906 65.4367 508.906 61.33C508.906 57.9567 509.859 54.8767 511.766 52.09C513.746 49.3033 516.532 47.1033 520.126 45.49C523.792 43.8767 528.082 43.07 532.996 43.07C540.256 43.07 546.049 44.9033 550.376 48.57C554.702 52.1633 557.086 57.04 557.526 63.2H542.786C542.566 60.78 541.539 58.8733 539.706 57.48C537.946 56.0133 535.562 55.28 532.556 55.28C529.769 55.28 527.606 55.7933 526.066 56.82C524.599 57.8467 523.866 59.2767 523.866 61.11C523.866 63.1633 524.892 64.74 526.946 65.84C528.999 66.8667 532.189 67.93 536.516 69.03C540.916 70.13 544.546 71.2667 547.406 72.44C550.266 73.6133 552.722 75.4467 554.776 77.94C556.902 80.36 558.002 83.5867 558.076 87.62C558.076 91.14 557.086 94.2933 555.106 97.08C553.199 99.8667 550.412 102.067 546.746 103.68C543.152 105.22 538.936 105.99 534.096 105.99ZM633.967 109.4V124.03H569.397V109.4H633.967Z" fill="white"/></g><defs><clipPath id="clip0_1_2"><rect width="645" height="142" fill="white"/></clipPath></defs></svg>